# xmcd CD database file
#
# Track frame offsets:
#	150
#	16718
#	41754
#	69386
#	100486
#	123111
#	151697
#	160362
#	183049
#	209417
#	242095
#
# Disc length: 3559 seconds
#
# Revision: 0
# Processed by: cddbd v1.5.2PL0 Copyright (c) Steve Scherf et al.
# Submitted via: CDex 1.70beta2
#
DISCID=840de50b
DTITLE=Nicole Jo - 20
DYEAR=2018
DGENRE=Jazz
TTITLE0=B-Day
TTITLE1=Easy Going
TTITLE2=Peaceful Three
TTITLE3=In Movement
TTITLE4=Step
TTITLE5=Steve's Organ Groove
TTITLE6=Sunday Morning Ceremony
TTITLE7=Kestrel Love
TTITLE8=The Mars
TTITLE9=Pearls
TTITLE10=New York Nightlife
EXTD=YEAR: 2018
EXTT0=
EXTT1=
EXTT2=
EXTT3=
EXTT4=
EXTT5=
EXTT6=
EXTT7=
EXTT8=
EXTT9=
EXTT10=
PLAYORDER=
